<svg width="70" height="42" viewBox="0 0 70 42" fill="none" xmlns="http://www.w3.org/2000/svg">
<path d="M6.5809 5.50278C16.1248 5.50288 25.5514 5.47898 34.9776 5.52802C36.455 5.53571 37.5359 5.07874 38.379 3.87926C39.0107 2.98071 39.7339 2.14806 40.3939 1.26891C41.0313 0.419765 41.8647 0.0145811 42.9146 0.0180265C44.6748 0.0238017 46.4362 0.0601541 48.1945 0.00169082C49.0787 -0.0277111 49.4109 0.325023 49.3735 1.16327C49.356 1.55634 49.3553 1.95112 49.3683 2.34441C49.3902 3.00733 49.0525 3.25861 48.43 3.24028C47.922 3.22531 47.4124 3.22202 46.9048 3.24405C45.1941 3.31828 44.5067 4.01406 44.4737 5.73036C44.4518 6.87203 44.4697 8.01448 44.4697 9.15657C44.4697 14.5126 44.4457 19.8689 44.491 25.2245C44.4994 26.2236 44.2883 26.5819 43.2105 26.5785C30.8897 26.5399 18.5687 26.5479 6.24783 26.5673C5.41342 26.5686 4.76098 26.372 4.16612 25.7555C3.07682 24.6266 1.93225 23.5506 0.788897 22.4761C0.235472 21.956 -0.00306061 21.3558 2.96227e-05 20.593C0.0171005 16.3791 -0.00189661 12.1651 0.0134432 7.95122C0.0195896 6.26283 0.777764 5.52526 2.47389 5.50546C3.80359 5.48993 5.1336 5.50262 6.5809 5.50278Z" fill="white"/>
<path d="M27.9618 30.7156C24.2 28.6665 20.0585 30.6859 18.8541 34.5062C18.6755 35.0726 18.4332 35.2261 17.8886 35.2791C17.2169 35.3445 17.1317 34.9126 16.9706 34.4635C15.9309 31.5652 13.6564 29.8308 10.9485 29.8596C8.20953 29.8887 5.91791 31.622 4.98809 34.5181C4.69944 35.4172 4.11373 35.2539 3.51491 35.2489C2.76406 35.2426 2.16119 34.9355 2.14078 34.1112C2.09205 32.1419 2.12306 30.1708 2.10505 28.2006C2.10078 27.7338 2.28828 27.5572 2.73989 27.6052C2.97222 27.6298 3.20914 27.6113 3.44399 27.6113C17.4567 27.6114 31.4694 27.6117 45.4821 27.611C47.0425 27.6109 47.0413 27.608 47.0411 26.0898C47.0405 20.4541 47.0377 14.8184 47.0423 9.1827C47.044 7.1381 47.4891 6.69877 49.5373 6.69695C53.2166 6.69369 56.896 6.70812 60.5751 6.68464C61.2151 6.68055 61.6623 6.86708 62.0834 7.36914C63.7741 9.38498 65.493 11.3774 67.2334 13.35C67.705 13.8845 67.9176 14.4278 67.9072 15.1504C67.8701 17.7116 67.9147 20.2739 67.8807 22.8351C67.8686 23.7463 68.138 24.3758 69.0762 24.5665C69.7919 24.7119 70.0014 25.1822 69.9979 25.8542C69.9863 28.14 70.0201 30.4263 69.9779 32.7114C69.9597 33.6964 69.5844 34.5653 68.6451 35.0434C67.5223 35.6149 66.6571 35.2681 66.2438 34.1135C65.3573 31.6374 62.8828 29.8647 60.3099 29.8625C57.7719 29.8603 55.3748 31.5115 54.5023 34.0758C54.1721 35.0459 53.7336 35.2842 52.7742 35.2782C45.9638 35.2356 39.153 35.2467 32.3424 35.2679C31.5699 35.2703 31.0999 35.1768 30.8386 34.273C30.4003 32.7565 29.3799 31.6003 27.9618 30.7156Z" fill="white"/>
<path d="M21.3352 32.3779C23.4157 30.7264 25.5901 30.5434 27.6902 31.7877C29.3232 32.7552 30.3379 34.9917 30.0338 36.9534C29.6976 39.1234 28.0443 40.8325 25.821 41.3088C23.925 41.7149 21.7713 40.805 20.6249 39.1134C19.4225 37.3391 19.4112 34.9867 20.6086 33.2572C20.8084 32.9687 21.0517 32.7107 21.3352 32.3779Z" fill="white"/>
<path d="M65.4673 35.61C65.6471 38.3018 64.0889 40.5551 61.6664 41.2269C59.3151 41.8789 56.8532 40.7338 55.6894 38.4468C54.5978 36.3017 55.2145 33.5184 57.2453 32.006C60.2116 29.7969 64.8125 31.2502 65.4673 35.61Z" fill="white"/>
<path d="M14.7401 39.6905C12.6137 41.6707 10.3801 41.9494 8.18744 40.5651C6.23927 39.3352 5.30015 36.8923 5.97466 34.7299C6.63124 32.625 8.06798 31.3324 10.2217 31.0282C12.4327 30.7159 14.2176 31.5922 15.3781 33.5153C16.5219 35.4109 16.3757 37.3278 15.1594 39.1655C15.0517 39.3282 14.9175 39.4732 14.7401 39.6905Z" fill="white"/>
<path d="M16.5046 15.7356C15.8826 18.1913 15.2853 20.5533 14.6764 22.9122C14.5633 23.3503 14.5093 23.9755 13.8474 23.7757C13.2898 23.6073 13.4901 23.0953 13.6003 22.6677C14.6793 18.4813 15.7481 14.2921 16.8313 10.1068C16.9308 9.72231 16.9243 9.11445 17.5721 9.30593C18.1234 9.46891 18.0108 9.94348 17.8918 10.3907C17.4267 12.1382 16.9793 13.8905 16.5046 15.7356Z" fill="#086972"/>
<path d="M30.6544 16.969C30.1176 19.0377 29.6203 21.0176 29.1098 22.9941C29.0026 23.4088 28.8812 23.9572 28.3124 23.7815C27.7585 23.6103 27.9514 23.0896 28.0583 22.6681C29.1202 18.4805 30.1741 14.2908 31.2563 10.1086C31.3493 9.74887 31.3177 9.10792 31.9611 9.23846C32.7332 9.39514 32.4587 10.0485 32.35 10.4908C31.8249 12.6272 31.2478 14.7508 30.6544 16.969Z" fill="#086972"/>
<path d="M37.0923 15.5921C37.5818 13.6729 38.0511 11.8487 38.514 10.0229C38.6253 9.58374 38.7496 9.10934 39.3284 9.27119C39.8383 9.41376 39.7366 9.88851 39.64 10.2661C38.5509 14.5235 37.4551 18.7792 36.3456 23.0313C36.2401 23.4358 36.0808 23.9708 35.5169 23.7816C35.0574 23.6274 35.1584 23.143 35.2578 22.7532C35.8591 20.397 36.4653 18.042 37.0923 15.5921Z" fill="#086972"/>
<path d="M23.2672 17.5636C22.8046 19.4052 22.3604 21.1517 21.9045 22.895C21.7904 23.3315 21.7466 23.9568 21.0907 23.7781C20.517 23.6219 20.7305 23.0978 20.8366 22.6796C21.8875 18.539 22.9369 14.3981 23.9881 10.2576C24.017 10.1439 24.0689 10.0361 24.0981 9.92237C24.2008 9.5223 24.3245 9.1093 24.8592 9.28128C25.3147 9.42778 25.2236 9.8416 25.141 10.1776C24.6635 12.1186 24.17 14.0557 23.6781 15.9931C23.5529 16.4864 23.4139 16.976 23.2672 17.5636Z" fill="#086972"/>
<path d="M9.11338 12.0048C9.28106 11.301 9.41372 10.6882 9.57995 10.0847C9.69054 9.68329 9.75352 9.12493 10.3508 9.27079C10.9452 9.41595 10.7661 9.92451 10.6619 10.3423C10.1593 12.3563 9.65918 14.371 9.14471 16.382C8.58148 18.5836 8.01114 20.7835 7.42475 22.979C7.32077 23.3683 7.2706 23.9563 6.65833 23.7871C6.06495 23.623 6.27603 23.0792 6.37526 22.6872C7.26949 19.1551 8.18405 15.6282 9.11338 12.0048Z" fill="#086972"/>
<path d="M63.8618 15.5709C63.8581 16.9326 63.8215 18.1936 63.8646 19.4517C63.8887 20.1557 63.6674 20.4493 62.9437 20.4452C59.4247 20.4256 55.9056 20.4274 52.3866 20.4446C51.7077 20.4479 51.4118 20.2465 51.4229 19.4982C51.4617 16.9004 51.465 14.3013 51.4223 11.7036C51.4106 10.9937 51.6651 10.8512 52.2993 10.8592C54.6449 10.8889 56.9912 10.8693 59.3372 10.8742C59.6445 10.8748 60.0096 10.79 60.2276 11.0577C61.4308 12.5352 62.9674 13.7347 63.8618 15.5709Z" fill="#086972"/>
<path d="M25.6038 38.1474C24.2146 38.4416 23.1557 37.8974 22.8204 36.7839C22.512 35.7598 23.0748 34.5613 24.056 34.1524C25.0822 33.7247 26.3412 34.212 26.8261 35.2244C27.374 36.3686 26.9837 37.367 25.6038 38.1474Z" fill="#086972"/>
<path d="M60.7262 38.272C58.9947 38.2062 58.0236 37.2444 58.1861 35.8612C58.3346 34.5959 59.4949 33.7832 60.8206 34.0511C61.8108 34.2511 62.3827 34.9248 62.4758 35.9003C62.5918 37.1169 61.962 37.8935 60.7262 38.272Z" fill="#086972"/>
<path d="M9.58692 34.442C11.1828 33.6734 12.4524 34.053 12.9616 35.37C13.4188 36.5526 12.8576 37.7668 11.6214 38.1948C10.6108 38.5447 9.71842 38.2361 9.16528 37.3735C8.53193 36.3859 8.64582 35.3665 9.58692 34.442Z" fill="#086972"/>
<path d="M24.8968 35.0337C25.8209 35.1246 26.154 35.6452 26.0242 36.4121C25.925 36.9984 25.5138 37.3986 24.8803 37.3723C24.2827 37.3475 23.8235 37.03 23.7512 36.3991C23.664 35.6388 23.9506 35.097 24.8968 35.0337Z" fill="#086972"/>
<path d="M60.7273 35.0452C61.5345 35.5753 61.781 36.2047 61.2136 36.9588C60.8281 37.4711 60.3126 37.501 59.7594 37.1891C59.2383 36.8953 59.0766 36.4346 59.2153 35.8971C59.401 35.1771 59.9143 34.9055 60.7273 35.0452Z" fill="#086972"/>
<path d="M11.574 35.1835C12.247 35.8629 12.264 36.5024 11.6636 37.1079C11.2302 37.5449 10.7196 37.432 10.2662 37.129C9.7183 36.7629 9.67404 36.2041 9.91752 35.662C10.2346 34.9562 10.829 34.8803 11.574 35.1835Z" fill="#086972"/>
</svg>
