<svg width="53" height="64" viewBox="0 0 53 64" fill="none" xmlns="http://www.w3.org/2000/svg">
<path d="M28.3848 43.8431C26.9891 45.9402 28.3774 47.7109 28.8387 49.5865C29.2359 49.5257 29.2315 49.2133 29.3273 49.0093C30.8956 45.6704 32.471 42.3345 33.9938 38.9749C34.317 38.262 34.5283 38.2184 35.1551 38.6887C37.9511 40.7867 41.1965 41.7763 44.5936 42.3527C44.788 42.3857 44.982 42.422 45.1748 42.463C49.3899 43.3585 50.886 44.9159 51.597 49.1772C51.9832 51.4924 52.1009 53.8283 52.0672 56.1723C52.049 57.4418 51.3325 58.3315 50.405 59.0781C48.8391 60.3387 46.9917 61.035 45.1006 61.6099C40.2391 63.0875 35.2281 63.6639 30.1805 63.8957C23.1992 64.2162 16.2592 63.8329 9.42058 62.273C7.19214 61.7647 5.01236 61.1 2.99815 59.9796C2.22898 59.5518 1.51872 59.0486 0.92913 58.3913C0.429407 57.8343 0.0272074 57.1984 0.0127138 56.4388C-0.0449574 53.4162 0.0694487 50.4036 0.862685 47.462C1.53492 44.9691 3.05321 43.315 5.64188 42.7573C7.15626 42.431 8.67445 42.1207 10.1826 41.7675C12.6532 41.1889 14.9354 40.1695 16.9652 38.6453C17.5868 38.1786 17.7716 38.3306 18.0608 38.9664C19.588 42.3242 21.162 45.6607 22.7221 49.0035C22.8152 49.2029 22.9279 49.3931 23.1419 49.7949C23.6236 48.3329 24.1343 47.0698 24.4197 45.7577C24.5171 45.3099 24.0503 44.7381 23.8378 44.2245C23.6118 43.6781 23.3779 43.1349 23.1541 42.5876C22.788 41.692 23.2116 40.8973 24.1854 40.8433C25.4217 40.7748 26.6654 40.8073 27.9048 40.8396C28.6966 40.8602 29.4295 41.8058 28.9091 42.6209C28.6851 42.9717 28.5707 43.3927 28.3848 43.8431Z" fill="white"/>
<path d="M10.7553 15.0596C11.152 14.573 11.6199 14.2673 12.1722 14.2904C12.796 14.3164 12.8223 14.0001 12.8581 13.5231C13.2057 8.89523 15.3811 5.37467 19.3062 2.90858C19.8865 2.54394 20.116 2.53854 20.2287 3.30534C20.4783 5.00512 20.8252 6.69039 21.1099 8.38534C21.2275 9.08479 21.5215 9.57851 22.3059 9.50629C22.963 9.44579 23.2419 8.89748 23.089 8.00215C22.7665 6.1133 22.4356 4.22572 22.0872 2.34149C21.8403 1.00613 22.411 0.141968 23.7937 0.0631643C25.2828 -0.0216991 26.784 -0.0203093 28.2733 0.0628663C29.6366 0.139003 30.2127 1.00742 29.9706 2.34512C29.6293 4.23072 29.2965 6.11791 28.9725 8.00655C28.82 8.89561 29.1013 9.45046 29.7592 9.50741C30.5435 9.5753 30.8327 9.08251 30.951 8.38168C31.2463 6.63151 31.597 4.89043 31.8734 3.1375C31.9705 2.52197 32.1644 2.55012 32.6118 2.82331C36.5662 5.23785 38.796 8.73213 39.1862 13.3564C39.2392 13.9847 39.3289 14.2721 40.0571 14.3199C41.0368 14.3842 41.719 15.3005 41.6997 16.2612C41.6803 17.2281 40.9656 18.0074 39.968 18.1375C39.7735 18.1629 39.5744 18.1591 39.3775 18.1591C30.4672 18.1601 21.557 18.1624 12.6467 18.1583C10.7287 18.1574 9.87596 16.7992 10.7553 15.0596Z" fill="white"/>
<path d="M38.9486 25.2613C38.6434 25.9715 38.3391 26.6037 37.7083 27.0048C37.398 27.2022 37.3433 27.5591 37.2156 27.8676C36.1042 30.5535 34.6151 32.9897 32.4846 34.9983C28.3984 38.8509 23.6999 38.839 19.632 34.9566C17.5591 32.9782 16.0772 30.6006 14.9989 27.9611C14.8163 27.5139 14.5521 27.1854 14.1731 26.85C13.0071 25.8181 12.6934 24.3521 12.5231 22.8859C12.2781 20.7759 12.3115 20.772 14.4107 20.772C22.4758 20.772 30.541 20.7833 38.606 20.7539C39.3804 20.7511 39.6323 20.9651 39.6101 21.7314C39.5755 22.9276 39.4301 24.0891 38.9486 25.2613Z" fill="white"/>
</svg>
